<?xml version="1.0" encoding="iso-8859-1"?>
<!-- Generator: Adobe Illustrator 19.0.0, SVG Export Plug-In . SVG Version: 6.00 Build 0)  -->
<svg version="1.1" id="Capa_1" xmlns="http://www.w3.org/2000/svg" xmlns:xlink="http://www.w3.org/1999/xlink" x="0px" y="0px"
	 viewBox="0 0 490.667 490.667" style="enable-background:new 0 0 490.667 490.667;" xml:space="preserve">
<g>
	<g>
		<path d="M53.333,0c-5.888,0-10.667,4.779-10.667,10.667V480c0,5.888,4.779,10.667,10.667,10.667S64,485.888,64,480V10.667
			C64,4.779,59.221,0,53.333,0z"/>
	</g>
</g>
<g>
	<g>
		<path d="M181.333,0c-5.888,0-10.667,4.779-10.667,10.667V480c0,5.888,4.779,10.667,10.667,10.667S192,485.888,192,480V10.667
			C192,4.779,187.221,0,181.333,0z"/>
	</g>
</g>
<g>
	<g>
		<path d="M309.333,0c-5.888,0-10.667,4.779-10.667,10.667V480c0,5.888,4.779,10.667,10.667,10.667S320,485.888,320,480V10.667
			C320,4.779,315.221,0,309.333,0z"/>
	</g>
</g>
<g>
	<g>
		<path d="M437.333,0c-5.888,0-10.667,4.779-10.667,10.667V480c0,5.888,4.779,10.667,10.667,10.667
			c5.888,0,10.667-4.779,10.667-10.667V10.667C448,4.779,443.221,0,437.333,0z"/>
	</g>
</g>
<g>
	<g>
		<path d="M480,426.667H10.667C4.779,426.667,0,431.445,0,437.333C0,443.221,4.779,448,10.667,448H480
			c5.888,0,10.667-4.779,10.667-10.667C490.667,431.445,485.888,426.667,480,426.667z"/>
	</g>
</g>
<g>
	<g>
		<path d="M480,298.667H10.667C4.779,298.667,0,303.445,0,309.333S4.779,320,10.667,320H480c5.888,0,10.667-4.779,10.667-10.667
			S485.888,298.667,480,298.667z"/>
	</g>
</g>
<g>
	<g>
		<path d="M480,170.667H10.667C4.779,170.667,0,175.445,0,181.333S4.779,192,10.667,192H480c5.888,0,10.667-4.779,10.667-10.667
			S485.888,170.667,480,170.667z"/>
	</g>
</g>
<g>
	<g>
		<path d="M480,42.667H10.667C4.779,42.667,0,47.445,0,53.333S4.779,64,10.667,64H480c5.888,0,10.667-4.779,10.667-10.667
			S485.888,42.667,480,42.667z"/>
	</g>
</g>
<g>
</g>
<g>
</g>
<g>
</g>
<g>
</g>
<g>
</g>
<g>
</g>
<g>
</g>
<g>
</g>
<g>
</g>
<g>
</g>
<g>
</g>
<g>
</g>
<g>
</g>
<g>
</g>
<g>
</g>
</svg>
